<svg width="916.963" height="429.963" xmlns="http://www.w3.org/2000/svg">

 <g>
  <title>background</title>
  <rect fill="none" id="canvas_background" height="431.963" width="918.963" y="-1" x="-1"/>
 </g>
 <g>
  <title>Layer 1</title>
  <g transform="rotate(89.82557678222656 749.9815063476562,229.98150634765628) " id="svg_1">
   <g id="svg_2">
    <polygon stroke-width="10" stroke="#fff" fill="#000" id="svg_3" points="853.7909545898438,148.22799682617188 831.6719970703125,174.63499450683594 872.447021484375,219.39700317382812 881.8030395507812,208.22799682617188 964.9630126953125,208.22799682617188 964.9630126953125,148.22799682617188 "/>
    <path stroke-width="10" stroke="#fff" fill="#000" id="svg_4" d="m755.792,265.235l-35.594,0c-10.588,-19.064 -30.924,-31.998 -54.232,-31.998c-34.186,0 -61.998,27.812 -61.998,61.998s27.813,61.998 61.998,61.998c23.309,0 43.645,-12.936 54.232,-31.998l63.605,0l23.848,-28.475l-40.774,-44.76l-11.085,13.235zm-89.827,51.998c-12.13,0 -21.998,-9.869 -21.998,-21.998c0,-12.131 9.868,-21.998 21.998,-21.998s21.998,9.867 21.998,21.998c0,12.129 -9.868,21.998 -21.998,21.998z"/>
    <path stroke-width="10" stroke="#fff" fill="#000" id="svg_5" d="m887.109,264.972l-118.875,-130.494l-117.148,0c-10.627,-18.926 -30.883,-31.748 -54.088,-31.748c-34.186,-0.001 -61.998,27.812 -61.998,61.998s27.813,61.998 61.998,61.998c23.411,0 43.829,-13.047 54.377,-32.248l90.353,0l118.897,130.52l104.338,-0.102l-0.059,-60l-77.795,0.076zm-290.11,-78.246c-12.13,0 -21.998,-9.867 -21.998,-21.998c0,-12.129 9.868,-21.998 21.998,-21.998s21.998,9.869 21.998,21.998c0,12.13 -9.869,21.998 -21.998,21.998z"/>
   </g>
  </g>
  <g id="svg_6"/>
  <g id="svg_7"/>
  <g id="svg_8"/>
  <g id="svg_9"/>
  <g id="svg_10"/>
  <g id="svg_11"/>
  <g id="svg_12"/>
  <g id="svg_13"/>
  <g id="svg_14"/>
  <g id="svg_15"/>
  <g id="svg_16"/>
  <g id="svg_17"/>
  <g id="svg_18"/>
  <g id="svg_19"/>
  <g id="svg_20"/>
 </g>
</svg>